<svg width="24" height="24" viewBox="0 0 24 24" fill="none" xmlns="http://www.w3.org/2000/svg">
<path fill-rule="evenodd" clip-rule="evenodd" d="M12 24C18.6274 24 24 18.6274 24 12C24 5.37258 18.6274 0 12 0C5.37258 0 0 5.37258 0 12C0 18.6274 5.37258 24 12 24ZM18.4318 8.8157C18.8823 8.24552 18.7853 7.41807 18.2152 6.96753C17.645 6.517 16.8175 6.61399 16.367 7.18417L10.9541 14.0345L7.92108 11.0576C7.40246 10.5486 6.56937 10.5564 6.06034 11.075C5.55131 11.5936 5.55908 12.4267 6.07771 12.9357L10.1564 16.939C10.423 17.2006 10.7882 17.3366 11.161 17.3131C11.5337 17.2896 11.8789 17.1088 12.1105 16.8157L18.4318 8.8157Z" fill="#FC654C"/>
</svg>
